<svg width="120" height="120" viewBox="0 0 120 120" fill="none" xmlns="http://www.w3.org/2000/svg">
<g clip-path="url(#clip0_689_6533)">
<path d="M60.0078 3.05176e-05L60.2636 119.999H60.4061C93.5425 119.778 120.222 92.734 119.998 59.5949C119.777 26.5957 92.957 3.05176e-05 60.0078 3.05176e-05Z" fill="#FFD000"/>
<path d="M109.451 59.5949C109.636 92.734 87.6135 119.778 60.2636 119.999C27.1905 120.147 0.222945 93.4962 0.00140247 60.4072C-0.222777 27.2682 26.4572 0.22421 59.5937 0.00266793C59.7308 0.00266793 59.8706 3.05176e-05 60.0077 3.05176e-05C87.1678 0.0475039 109.267 26.6247 109.451 59.5949Z" fill="#FFE135"/>
<path d="M69.8976 63.2204C68.8743 62.8385 67.7347 63.3581 67.3525 64.3811C66.238 67.3648 63.2851 69.3626 60 69.3626C56.7148 69.3626 53.762 67.3648 52.6474 64.3811C52.265 63.3581 51.1254 62.8385 50.1023 63.2204C49.079 63.6025 48.5592 64.7422 48.9416 65.7655C50.6319 70.291 55.0704 73.319 60.0002 73.319C64.9301 73.319 69.3683 70.2913 71.0589 65.7655C71.4408 64.7422 70.9209 63.6025 69.8976 63.2204Z" fill="#B50E16"/>
<path d="M87.7238 35.0887C87.2068 35.0887 86.7055 35.1467 86.2223 35.2551L81.6577 58.8159C81.6815 58.832 81.692 58.837 81.692 58.837C81.692 58.837 94.6939 51.7429 94.6775 42.0185C94.671 38.1837 91.5559 35.0818 87.7238 35.0887Z" fill="#B50E16"/>
<path d="M89.403 41.9916C89.3946 51.4125 82.1138 58.391 81.658 58.8159C80.9296 58.4166 68.6664 51.4992 68.6514 42.0623C68.6445 38.2275 71.749 35.1154 75.5812 35.1085C78.1975 35.1061 80.4715 36.5499 81.658 38.6817C82.6056 36.9668 84.2554 35.6935 86.2226 35.2552C88.0493 35.9609 89.4067 38.7054 89.403 41.9916Z" fill="#CA2C33"/>
<path d="M44.3951 35.0678C43.8782 35.0678 43.3768 35.1258 42.8937 35.2342L38.3291 58.795C38.3528 58.8111 38.3634 58.8161 38.3634 58.8161C38.3634 58.8161 51.3653 51.722 51.3489 41.9976C51.3423 38.1625 48.2273 35.0609 44.3951 35.0678Z" fill="#B50E16"/>
<path d="M46.0739 41.9704C46.0655 51.3912 38.7847 58.3698 38.3289 58.7947C37.6005 58.3954 25.3373 51.478 25.3223 42.0411C25.3154 38.2063 28.4199 35.0942 32.2521 35.0873C34.8684 35.0849 37.1424 36.5287 38.3289 38.6605C39.2765 36.9456 40.9262 35.6723 42.8935 35.234C44.7202 35.9397 46.0776 38.6842 46.0739 41.9704Z" fill="#CA2C33"/>
<path d="M62.108 81.2175H58.1519C57.0595 81.2175 56.1738 80.3319 56.1738 79.2394C56.1738 78.147 57.0595 77.2614 58.1519 77.2614H62.108C63.2004 77.2614 64.0861 78.147 64.0861 79.2394C64.0861 80.3319 63.2004 81.2175 62.108 81.2175Z" fill="#FFD000"/>
<path d="M21.6267 71.864C25.2682 71.864 28.2202 68.912 28.2202 65.2705C28.2202 61.629 25.2682 58.6769 21.6267 58.6769C17.9852 58.6769 15.0332 61.629 15.0332 65.2705C15.0332 68.912 17.9852 71.864 21.6267 71.864Z" fill="#EA9296"/>
<path d="M98.3733 71.3453C102.015 71.3453 104.967 68.3933 104.967 64.7518C104.967 61.1103 102.015 58.1583 98.3733 58.1583C94.7318 58.1583 91.7798 61.1103 91.7798 64.7518C91.7798 68.3933 94.7318 71.3453 98.3733 71.3453Z" fill="#EA9296"/>
</g>
<defs>
<clipPath id="clip0_689_6533">
<rect width="120" height="120" fill="white"/>
</clipPath>
</defs>
</svg>
